<svg width="23" height="33" viewBox="0 0 23 33" fill="none" xmlns="http://www.w3.org/2000/svg">
<path fill-rule="evenodd" clip-rule="evenodd" d="M11.339 32.3008C11.606 32.3008 11.861 32.1908 12.053 32.0078L22.052 22.1088C22.447 21.7178 22.446 21.0848 22.052 20.6948C21.658 20.3038 21.018 20.3038 20.624 20.6948L12.349 28.8878L12.349 1.30078C12.349 0.748781 11.897 0.300781 11.339 0.300781C10.781 0.300781 10.329 0.748781 10.329 1.30078L10.329 28.8868L2.05402 20.6948C1.66002 20.3038 1.02002 20.3048 0.626024 20.6948C0.232025 21.0858 0.232025 21.7188 0.626024 22.1088L10.625 32.0078C10.814 32.1948 11.074 32.2978 11.339 32.3008Z" fill="#FF0303"/>
</svg>
