<svg width="23" height="33" viewBox="0 0 23 33" fill="none" xmlns="http://www.w3.org/2000/svg">
<path fill-rule="evenodd" clip-rule="evenodd" d="M11.3573 0.143066C11.0903 0.143066 10.8353 0.253065 10.6433 0.436066L0.644264 10.3351C0.249264 10.7261 0.250264 11.3591 0.644264 11.7491C1.03826 12.1401 1.67826 12.1401 2.07226 11.7491L10.3473 3.55607L10.3473 31.1431C10.3473 31.6951 10.7993 32.1431 11.3573 32.1431C11.9153 32.1431 12.3673 31.6951 12.3673 31.1431L12.3673 3.55707L20.6423 11.7491C21.0363 12.1401 21.6763 12.1391 22.0703 11.7491C22.4643 11.3581 22.4643 10.7251 22.0703 10.3351L12.0713 0.436066C11.8823 0.249065 11.6223 0.146067 11.3573 0.143066Z" fill="#009933"/>
</svg>
