<svg width="41" height="40" viewBox="0 0 41 40" fill="none" xmlns="http://www.w3.org/2000/svg">
<path d="M20.4875 9.46387C15.6273 9.46387 11.6733 13.8358 11.6733 19.2095C11.6733 24.5832 15.6273 28.9551 20.4875 28.9551C25.3477 28.9551 29.3017 24.5832 29.3017 19.2095C29.3017 13.8358 25.3477 9.46387 20.4875 9.46387ZM20.4875 27.1938C16.5057 27.1938 13.2663 23.612 13.2663 19.2095C13.2663 14.8069 16.5057 11.2251 20.4875 11.2251C24.4693 11.2251 27.7087 14.8069 27.7087 19.2095C27.7087 23.612 24.4693 27.1938 20.4875 27.1938Z" fill="#009933"/>
<path d="M28.9728 9.88609C26.7064 7.38012 23.6929 6 20.4875 6C17.2822 6 14.2687 7.38012 12.0023 9.88609C9.73576 12.3922 8.48755 15.7241 8.48755 19.2681C8.48755 25.5205 12.4409 30.9184 17.9329 32.2338L20.4875 36L23.0423 32.2337C28.5342 30.9183 32.4875 25.5205 32.4875 19.2681C32.4875 15.7241 31.2393 12.3922 28.9728 9.88609ZM22.4385 30.5723L22.1349 30.6359L20.4875 33.0646L18.8402 30.6359L18.5366 30.5723C13.6368 29.5452 10.0805 24.7911 10.0805 19.2681C10.0805 12.9232 14.7491 7.76125 20.4875 7.76125C26.226 7.76125 30.8946 12.9232 30.8946 19.2681C30.8946 24.791 27.3383 29.5452 22.4385 30.5723Z" fill="#009933"/>
<circle cx="20.4875" cy="20" r="20" fill="#009933" fill-opacity="0.2"/>
</svg>
