<svg width="41" height="40" viewBox="0 0 41 40" fill="none" xmlns="http://www.w3.org/2000/svg">
<circle cx="20.6729" cy="20" r="20" fill="#009933" fill-opacity="0.2"/>
<path d="M32.7073 20.7271H29.1581V17.2014H32.7073C33.2406 17.2014 33.6729 16.755 33.6729 16.2037C33.6729 15.6523 33.2406 15.2057 32.7073 15.2057H29.1581V10.3136C29.1581 9.59954 29.0216 9.0754 28.7524 8.75611C28.4967 8.45237 28.1604 8.31104 27.6946 8.31104C27.2503 8.31104 26.9266 8.4514 26.6758 8.75324C26.4098 9.07285 26.2748 9.59797 26.2748 10.314V15.2063H19.5986L16.76 10.7664C16.517 10.3702 16.2886 9.99902 16.0668 9.64275C15.8671 9.3219 15.6723 9.06067 15.4883 8.86561C15.3254 8.69292 15.1398 8.55927 14.9227 8.45654C14.7178 8.35988 14.4574 8.31136 14.1492 8.31136C13.7563 8.31136 13.3995 8.42264 13.0579 8.65128C12.7199 8.87742 12.4862 9.15701 12.3435 9.50607C12.2182 9.83781 12.152 10.3461 12.152 11.0023V15.2059H8.63806C8.10487 15.206 7.67285 15.6527 7.67285 16.204C7.67285 16.7553 8.10487 17.2017 8.63812 17.2017H12.152V20.7277H8.63812C8.10487 20.7277 7.67285 21.1743 7.67285 21.7257C7.67285 22.2769 8.10487 22.7231 8.63812 22.7231H12.152V28.3086C12.152 29.0016 12.2929 29.5204 12.5719 29.8501C12.8373 30.1644 13.1738 30.3104 13.6307 30.3104C14.0715 30.3104 14.4053 30.1638 14.6822 29.8488C14.9657 29.5262 15.1091 29.0077 15.1091 28.3086V22.7231H21.1502L24.4194 27.9046C24.6468 28.2471 24.8815 28.5928 25.1156 28.9318C25.3268 29.2362 25.5572 29.5044 25.8003 29.7285C26.0192 29.9311 26.2539 30.0796 26.4979 30.1702C26.7491 30.2637 27.0426 30.311 27.3684 30.311C28.2525 30.311 29.158 30.0313 29.158 27.9565V22.7231H32.7072C33.2405 22.7231 33.6727 22.2763 33.6727 21.7251C33.6729 21.1739 33.2406 20.7271 32.7073 20.7271ZM26.2747 17.2014V20.727H23.1291L20.8751 17.2014H26.2747ZM15.1091 13.1503L16.4063 15.2057H15.1091V13.1503ZM15.1091 20.7271V17.2014H17.6659L19.8908 20.7271H15.1091ZM26.2747 25.6481L24.4052 22.7231H26.2747V25.6481Z" fill="#009933"/>
</svg>
