<svg width="41" height="40" viewBox="0 0 41 40" fill="none" xmlns="http://www.w3.org/2000/svg">
<g clip-path="url(#clip0_1_13591)">
<path d="M28.7497 6.5835H11.9929C11.3959 6.5835 10.9119 7.10583 10.9119 7.75016V32.2502C10.9119 32.8945 11.3959 33.4168 11.9929 33.4168H28.7497C29.3468 33.4168 29.8308 32.8945 29.8308 32.2502V7.75016C29.8308 7.10583 29.3468 6.5835 28.7497 6.5835Z" stroke="#009933" stroke-width="2" stroke-linecap="round" stroke-linejoin="round"/>
<path d="M14.6956 6.5835V33.4168" stroke="#009933" stroke-width="2" stroke-linecap="round" stroke-linejoin="round"/>
<path d="M24.1282 19.2244C24.3645 18.8674 24.5257 18.459 24.6004 18.0277C24.6751 17.5964 24.6615 17.1528 24.5606 16.7277C24.4736 16.2755 24.2779 15.8559 23.9934 15.5109C23.7088 15.1659 23.3452 14.9076 22.939 14.7619C21.3174 14.2369 19.8849 15.6544 19.8849 17.4802C19.877 18.1062 20.053 18.7189 20.3876 19.2302C20.4519 19.3172 20.4986 19.4176 20.5249 19.5252C20.5511 19.6327 20.5562 19.745 20.5399 19.8548C20.5236 19.9646 20.4863 20.0695 20.4303 20.1629C20.3743 20.2562 20.3009 20.3359 20.2147 20.3969C19.531 20.8291 18.9554 21.435 18.5381 22.1619C18.1208 22.8888 17.8743 23.7147 17.8201 24.5677C17.8085 24.6369 17.8107 24.708 17.8264 24.7762C17.8422 24.8444 17.8713 24.9082 17.9117 24.9634C17.9521 25.0185 18.0028 25.0638 18.0607 25.0961C18.1185 25.1285 18.1821 25.1472 18.2471 25.1511H26.2795C26.3447 25.1471 26.4084 25.1284 26.4665 25.0961C26.5245 25.0638 26.5756 25.0186 26.6164 24.9636C26.6572 24.9086 26.6868 24.8449 26.7033 24.7767C26.7197 24.7085 26.7227 24.6373 26.712 24.5677C26.6581 23.7168 26.4128 22.8928 25.9975 22.1671C25.5821 21.4413 25.0092 20.8358 24.3282 20.4027C24.2376 20.3449 24.1596 20.2668 24.0994 20.1737C24.0392 20.0805 23.9982 19.9745 23.9792 19.8628C23.9603 19.7511 23.9638 19.6363 23.9895 19.5261C24.0152 19.416 24.0625 19.3131 24.1282 19.2244V19.2244Z" stroke="#009933" stroke-width="2" stroke-linecap="round" stroke-linejoin="round"/>
</g>
<circle cx="20.3713" cy="20" r="20" fill="#009933" fill-opacity="0.2"/>
<defs>
<clipPath id="clip0_1_13591">
<rect width="20" height="28" fill="white" transform="translate(10.3713 6)"/>
</clipPath>
</defs>
</svg>
