<svg width="11" height="11" viewBox="0 0 11 11" fill="none" xmlns="http://www.w3.org/2000/svg">
<path d="M9.89578 4.61459C10.0926 4.41437 10.1621 4.12051 10.0772 3.84734C9.99209 3.57417 9.77043 3.37917 9.4981 3.33779L7.07683 2.97057C6.9737 2.9549 6.8846 2.88739 6.83854 2.78978L5.75606 0.499935C5.63451 0.242652 5.38782 0.0827637 5.11289 0.0827637C4.83817 0.0827637 4.59147 0.242652 4.46993 0.499935L3.38724 2.78999C3.34119 2.8876 3.25188 2.9551 3.14876 2.97078L0.727482 3.338C0.455359 3.37917 0.233495 3.57438 0.148394 3.84755C0.0634929 4.12072 0.132975 4.41458 0.329809 4.6148L2.08169 6.39719C2.15638 6.47327 2.19062 6.58278 2.173 6.68979L1.75971 9.20662C1.72307 9.42816 1.77873 9.64365 1.91609 9.81357C2.12955 10.0784 2.50219 10.159 2.80014 9.99561L4.96552 8.80721C5.05603 8.75768 5.16996 8.7581 5.26027 8.80721L7.42584 9.99561C7.53117 10.0535 7.6435 10.0828 7.75944 10.0828C7.97109 10.0828 8.17173 9.98453 8.30969 9.81357C8.44726 9.64365 8.50272 9.42775 8.46608 9.20662L8.05259 6.68979C8.03497 6.58257 8.06921 6.47327 8.14389 6.39719L9.89578 4.61459Z" fill="#FFB129"/>
</svg>
